# xmcd
#
# Track frame offsets:
#	150
#	12154
#	24344
#	37338
#	50390
#	62732
#	75648
#	89163
#	102288
#	115933
#	129010
#	141165
#	152169
#	165161
#	178908
#	192597
#	207013
#	220974
#
# Disc length: 3132 seconds
# Revision: 0
# Processed by: cddbd v1.5.2PL0 Copyright (c) Steve Scherf et al.
# Submitted via: dBpowerAMP V12.0
#
DISCID=f70c3a12
DTITLE=Bukka White - The Panama Limited
DYEAR=2002
DGENRE=Blues
TTITLE0=Aberdeen Mississippi Blues
TTITLE1=Bukka's Jitterbug Swing
TTITLE2=Special Stream Line
TTITLE3=High Fever Blues
TTITLE4=District Attorney Blues
TTITLE5=Fixin' to Die Blues
TTITLE6=Black Train Blues
TTITLE7=Strange Place Blues
TTITLE8=When Can I Change My Clothes
TTITLE9=Sleepy Man Blues
TTITLE10=Parchman Farm Blues
TTITLE11=Good Gin Blues
TTITLE12=Pinebluff Arkansas
TTITLE13=Shake 'em on Down
TTITLE14=The New 'frisco Train
TTITLE15=The Panama Limited
TTITLE16=I Am in the Heavenly Way
TTITLE17=Promise True and Grand
EXTD=
EXTT0=
EXTT1=
EXTT2=
EXTT3=
EXTT4=
EXTT5=
EXTT6=
EXTT7=
EXTT8=
EXTT9=
EXTT10=
EXTT11=
EXTT12=
EXTT13=
EXTT14=
EXTT15=
EXTT16=
EXTT17=
PLAYORDER=
